<?xml version="1.0" encoding="utf-8" ?>
<svg xmlns="http://www.w3.org/2000/svg" xmlns:xlink="http://www.w3.org/1999/xlink" width="5000" height="5000">
	<path fill="white" transform="scale(9.76562 9.76562)" d="M403.662 226.099C414.833 224.957 425.984 233.828 426.339 245.253C426.699 256.835 416.52 263.853 409.098 271.295L274.376 405.284C272.343 407.339 270.32 409.614 268.024 411.375C256.385 420.301 245.966 413.604 237.6 405.153L154.017 321.59C138.767 306.404 123.755 290.95 108.216 276.06C103.168 270.986 96.3766 264.758 91.8379 259.521C75.4164 240.575 101.268 215.614 119.232 230.537C124.073 234.559 128.472 239.59 132.919 244.062L239.749 350.644C245.1 355.976 250.973 361.226 255.73 367.09C264.77 358.497 273.412 349.408 282.268 340.621L381.144 241.951C387.896 235.23 393.54 227.211 403.662 226.099Z"/>
	<path fill="white" transform="scale(9.76562 9.76562)" d="M104.219 90.3635C114.481 89.7533 119.549 95.8087 126.1 102.47L241.227 216.642C253.626 229.07 253.273 233.063 267.576 219.34L385.499 102.842C391.31 97.1221 396.927 90.3261 405.82 90.3605C420 90.4155 430.556 106.231 423.901 119.189C421.159 124.526 409.629 134.96 404.835 139.58L279.795 264.071C265.505 278.117 257.418 289.902 238.218 270.645L101.244 134.003C97.78 130.486 94.1837 127.016 90.9965 123.243C80.0552 110.291 88.2783 92.5374 104.219 90.3635Z"/>
</svg>
